<mxfile host="app.diagrams.net" modified="2022-11-22T13:33:30.321Z" agent="5.0 (Macintosh; Intel Mac OS X 10_15_7) AppleWebKit/537.36 (KHTML, like Gecko) Chrome/107.0.0.0 Safari/537.36" etag="V9-TlBESskDxNwIiVEXV" version="20.5.3" type="github">
  <diagram id="NcuOsYzTowlJdWMpVtrB" name="Page-1">
    <mxGraphModel dx="1106" dy="709" grid="1" gridSize="10" guides="1" tooltips="1" connect="1" arrows="1" fold="1" page="1" pageScale="1" pageWidth="827" pageHeight="1169" math="0" shadow="0">
      <root>
        <mxCell id="0" />
        <mxCell id="1" parent="0" />
        <mxCell id="4Z095i3JN0roahp1nHXk-1" value="&lt;font style=&quot;font-size: 200px;&quot;&gt;vX.Y.Z&lt;/font&gt;" style="text;html=1;strokeColor=none;fillColor=none;align=center;verticalAlign=middle;whiteSpace=wrap;rounded=0;" vertex="1" parent="1">
          <mxGeometry x="100" y="60" width="490" height="300" as="geometry" />
        </mxCell>
        <mxCell id="4Z095i3JN0roahp1nHXk-2" value="" style="shape=curlyBracket;whiteSpace=wrap;html=1;rounded=1;flipH=1;fontSize=200;rotation=90;" vertex="1" parent="1">
          <mxGeometry x="90" y="250" width="20" height="120" as="geometry" />
        </mxCell>
        <mxCell id="4Z095i3JN0roahp1nHXk-3" value="" style="shape=curlyBracket;whiteSpace=wrap;html=1;rounded=1;flipH=1;fontSize=200;rotation=90;" vertex="1" parent="1">
          <mxGeometry x="241.25" y="223.75" width="20" height="172.5" as="geometry" />
        </mxCell>
        <mxCell id="4Z095i3JN0roahp1nHXk-4" value="" style="shape=curlyBracket;whiteSpace=wrap;html=1;rounded=1;flipH=1;fontSize=200;rotation=90;" vertex="1" parent="1">
          <mxGeometry x="411.88" y="231.88" width="20" height="156.25" as="geometry" />
        </mxCell>
        <mxCell id="4Z095i3JN0roahp1nHXk-5" value="" style="shape=curlyBracket;whiteSpace=wrap;html=1;rounded=1;flipH=1;fontSize=200;rotation=90;" vertex="1" parent="1">
          <mxGeometry x="560.94" y="250.94" width="20" height="118.13" as="geometry" />
        </mxCell>
        <mxCell id="4Z095i3JN0roahp1nHXk-6" value="Version" style="text;strokeColor=none;fillColor=none;html=1;fontSize=24;fontStyle=1;verticalAlign=middle;align=center;" vertex="1" parent="1">
          <mxGeometry x="50" y="330" width="100" height="40" as="geometry" />
        </mxCell>
        <mxCell id="4Z095i3JN0roahp1nHXk-7" value="Major" style="text;strokeColor=none;fillColor=none;html=1;fontSize=24;fontStyle=1;verticalAlign=middle;align=center;" vertex="1" parent="1">
          <mxGeometry x="201.25" y="330" width="100" height="40" as="geometry" />
        </mxCell>
        <mxCell id="4Z095i3JN0roahp1nHXk-8" value="Minor" style="text;strokeColor=none;fillColor=none;html=1;fontSize=24;fontStyle=1;verticalAlign=middle;align=center;" vertex="1" parent="1">
          <mxGeometry x="364" y="329.07" width="100" height="40" as="geometry" />
        </mxCell>
        <mxCell id="4Z095i3JN0roahp1nHXk-9" value="Patch" style="text;strokeColor=none;fillColor=none;html=1;fontSize=24;fontStyle=1;verticalAlign=middle;align=center;" vertex="1" parent="1">
          <mxGeometry x="520.94" y="329.07" width="100" height="40" as="geometry" />
        </mxCell>
        <mxCell id="4Z095i3JN0roahp1nHXk-10" value="&lt;span style=&quot;font-size: 18px;&quot;&gt;New sub-project, redesign,&lt;br&gt;major changes&lt;/span&gt;" style="text;html=1;strokeColor=none;fillColor=none;align=center;verticalAlign=middle;whiteSpace=wrap;rounded=0;fontSize=14;" vertex="1" parent="1">
          <mxGeometry x="181.25" y="396.25" width="140" height="30" as="geometry" />
        </mxCell>
        <mxCell id="4Z095i3JN0roahp1nHXk-11" value="&lt;span style=&quot;font-size: 18px;&quot;&gt;New feature/module added&lt;/span&gt;" style="text;html=1;strokeColor=none;fillColor=none;align=center;verticalAlign=middle;whiteSpace=wrap;rounded=0;fontSize=14;" vertex="1" parent="1">
          <mxGeometry x="351.88" y="388.13" width="140" height="30" as="geometry" />
        </mxCell>
        <mxCell id="4Z095i3JN0roahp1nHXk-12" value="&lt;span style=&quot;font-size: 18px;&quot;&gt;Bug fixed,&lt;br&gt;improvements to existing features,&lt;br&gt;&lt;br&gt;&lt;/span&gt;" style="text;html=1;strokeColor=none;fillColor=none;align=center;verticalAlign=middle;whiteSpace=wrap;rounded=0;fontSize=14;" vertex="1" parent="1">
          <mxGeometry x="500.94" y="400" width="140" height="30" as="geometry" />
        </mxCell>
        <mxCell id="4Z095i3JN0roahp1nHXk-13" value="" style="shape=curlyBracket;whiteSpace=wrap;html=1;rounded=1;flipH=1;fontSize=200;rotation=90;" vertex="1" parent="1">
          <mxGeometry x="386.25" y="235" width="20" height="462.5" as="geometry" />
        </mxCell>
        <mxCell id="4Z095i3JN0roahp1nHXk-14" value="Release levels" style="text;html=1;strokeColor=none;fillColor=none;align=center;verticalAlign=middle;whiteSpace=wrap;rounded=0;fontSize=18;" vertex="1" parent="1">
          <mxGeometry x="366" y="480" width="60" height="30" as="geometry" />
        </mxCell>
      </root>
    </mxGraphModel>
  </diagram>
</mxfile>
